<?xml version="1.0" encoding="UTF-8" standalone="no"?>
<!DOCTYPE svg PUBLIC "-//W3C//DTD SVG 1.1//EN" "http://www.w3.org/Graphics/SVG/1.1/DTD/svg11.dtd">
<svg xmlns="http://www.w3.org/2000/svg" version="1.1" viewBox="0.00 0.00 48.00 48.00">
<g stroke-width="2.00" fill="none" stroke-linecap="butt">
<path stroke="#28b0e9" vector-effect="non-scaling-stroke" d="
  M 45.97 23.49
  Q 44.84 22.79 43.67 22.93
  Q 43.14 23.00 43.13 23.53
  L 43.12 23.88
  Q 43.11 24.47 42.54 24.65
  C 40.12 25.44 38.74 24.73 36.60 26.63
  Q 36.24 26.95 35.77 26.85
  Q 34.57 26.61 33.81 27.52
  Q 33.51 27.88 33.05 27.88
  L 30.75 27.88
  Q 30.46 27.88 30.13 28.13
  Q 29.94 28.27 29.89 28.51
  A 0.54 0.54 0.0 0 1 29.28 28.94
  Q 26.65 28.51 25.37 29.70"
/>
<path stroke="#1798e0" vector-effect="non-scaling-stroke" d="
  M 25.37 29.70
  Q 21.32 28.43 16.53 29.03
  A 0.76 0.76 0.0 0 0 15.88 29.90
  L 15.94 30.30
  Q 16.04 30.97 16.72 30.98
  L 21.31 31.04"
/>
<path stroke="#28b0e9" vector-effect="non-scaling-stroke" d="
  M 21.31 31.04
  Q 16.28 31.10 16.67 32.93"
/>
<path stroke="#1798e0" vector-effect="non-scaling-stroke" d="
  M 16.67 32.93
  Q 11.51 32.98 5.51 33.20
  Q 4.88 33.22 4.93 34.26"
/>
<path stroke="#28b0e9" vector-effect="non-scaling-stroke" d="
  M 4.93 34.26
  Q 4.55 34.53 4.72 35.22
  Q 4.81 35.60 4.45 35.75
  L 2.07 36.78"
/>
<path stroke="#1190dd" vector-effect="non-scaling-stroke" d="
  M 4.93 34.26
  L 5.16 34.57
  Q 5.45 34.96 5.94 34.96
  Q 12.10 35.01 18.24 35.17
  Q 19.49 35.21 20.02 34.27
  A 0.76 0.76 0.0 0 0 19.42 33.14
  L 16.67 32.93"
/>
<path stroke="#1190dd" vector-effect="non-scaling-stroke" d="
  M 21.31 31.04
  Q 25.00 31.43 25.37 29.70"
/>
<path stroke="#74c5e5" vector-effect="non-scaling-stroke" d="
  M 42.9657 14.1583
  A 1.21 1.21 0.0 0 0 41.7431 12.9611
  L 36.1834 13.0193
  A 1.21 1.21 0.0 0 0 34.9861 14.2419
  L 35.0343 18.8417
  A 1.21 1.21 0.0 0 0 36.2569 20.0389
  L 41.8166 19.9807
  A 1.21 1.21 0.0 0 0 43.0139 18.7581
  L 42.9657 14.1583"
/>
<path stroke="#1798e0" vector-effect="non-scaling-stroke" d="
  M 14.1601 29.9760
  A 0.98 0.98 0.0 0 0 13.1835 28.9926
  L 5.9635 28.9674
  A 0.98 0.98 0.0 0 0 4.9801 29.9440
  L 4.9799 30.0040
  A 0.98 0.98 0.0 0 0 5.9565 30.9874
  L 13.1765 31.0126
  A 0.98 0.98 0.0 0 0 14.1599 30.0360
  L 14.1601 29.9760"
/>
</g>
<path fill="#2db7ec" d="
  M 45.97 23.49
  Q 44.84 22.79 43.67 22.93
  Q 43.14 23.00 43.13 23.53
  L 43.12 23.88
  Q 43.11 24.47 42.54 24.65
  C 40.12 25.44 38.74 24.73 36.60 26.63
  Q 36.24 26.95 35.77 26.85
  Q 34.57 26.61 33.81 27.52
  Q 33.51 27.88 33.05 27.88
  L 30.75 27.88
  Q 30.46 27.88 30.13 28.13
  Q 29.94 28.27 29.89 28.51
  A 0.54 0.54 0.0 0 1 29.28 28.94
  Q 26.65 28.51 25.37 29.70
  Q 21.32 28.43 16.53 29.03
  A 0.76 0.76 0.0 0 0 15.88 29.90
  L 15.94 30.30
  Q 16.04 30.97 16.72 30.98
  L 21.31 31.04
  Q 16.28 31.10 16.67 32.93
  Q 11.51 32.98 5.51 33.20
  Q 4.88 33.22 4.93 34.26
  Q 4.55 34.53 4.72 35.22
  Q 4.81 35.60 4.45 35.75
  L 2.07 36.78
  L 2.02 12.47
  Q 2.02 9.00 5.48 9.00
  L 43.03 9.00
  A 2.96 2.95 90.0 0 1 45.98 11.96
  L 45.97 23.49
  Z
  M 42.9657 14.1583
  A 1.21 1.21 0.0 0 0 41.7431 12.9611
  L 36.1834 13.0193
  A 1.21 1.21 0.0 0 0 34.9861 14.2419
  L 35.0343 18.8417
  A 1.21 1.21 0.0 0 0 36.2569 20.0389
  L 41.8166 19.9807
  A 1.21 1.21 0.0 0 0 43.0139 18.7581
  L 42.9657 14.1583
  Z
  M 14.1601 29.9760
  A 0.98 0.98 0.0 0 0 13.1835 28.9926
  L 5.9635 28.9674
  A 0.98 0.98 0.0 0 0 4.9801 29.9440
  L 4.9799 30.0040
  A 0.98 0.98 0.0 0 0 5.9565 30.9874
  L 13.1765 31.0126
  A 0.98 0.98 0.0 0 0 14.1599 30.0360
  L 14.1601 29.9760
  Z"
/>
<rect fill="#bbd2de" x="-3.99" y="-3.51" transform="translate(39.00,16.50) rotate(-0.6)" width="7.98" height="7.02" rx="1.21"/>
<path fill="#22a8e6" d="
  M 45.97 23.49
  L 45.98 36.08
  A 2.91 2.91 0.0 0 1 43.08 38.99
  Q 24.01 39.03 4.75 38.98
  Q 2.78 38.97 2.07 36.78
  L 4.45 35.75
  Q 4.81 35.60 4.72 35.22
  Q 4.55 34.53 4.93 34.26
  L 5.16 34.57
  Q 5.45 34.96 5.94 34.96
  Q 12.10 35.01 18.24 35.17
  Q 19.49 35.21 20.02 34.27
  A 0.76 0.76 0.0 0 0 19.42 33.14
  L 16.67 32.93
  Q 16.28 31.10 21.31 31.04
  Q 25.00 31.43 25.37 29.70
  Q 26.65 28.51 29.28 28.94
  A 0.54 0.54 0.0 0 0 29.89 28.51
  Q 29.94 28.27 30.13 28.13
  Q 30.46 27.88 30.75 27.88
  L 33.05 27.88
  Q 33.51 27.88 33.81 27.52
  Q 34.57 26.61 35.77 26.85
  Q 36.24 26.95 36.60 26.63
  C 38.74 24.73 40.12 25.44 42.54 24.65
  Q 43.11 24.47 43.12 23.88
  L 43.13 23.53
  Q 43.14 23.00 43.67 22.93
  Q 44.84 22.79 45.97 23.49
  Z"
/>
<rect fill="#0078d4" x="-4.59" y="-1.01" transform="translate(9.57,29.99) rotate(0.2)" width="9.18" height="2.02" rx="0.98"/>
<path fill="#0078d4" d="
  M 25.37 29.70
  Q 25.00 31.43 21.31 31.04
  L 16.72 30.98
  Q 16.04 30.97 15.94 30.30
  L 15.88 29.90
  A 0.76 0.76 0.0 0 1 16.53 29.03
  Q 21.32 28.43 25.37 29.70
  Z"
/>
<path fill="#0078d4" d="
  M 16.67 32.93
  L 19.42 33.14
  A 0.76 0.76 0.0 0 1 20.02 34.27
  Q 19.49 35.21 18.24 35.17
  Q 12.10 35.01 5.94 34.96
  Q 5.45 34.96 5.16 34.57
  L 4.93 34.26
  Q 4.88 33.22 5.51 33.20
  Q 11.51 32.98 16.67 32.93
  Z"
/>
</svg>
