<?xml version="1.0" encoding="UTF-8" standalone="no"?>
<!DOCTYPE svg PUBLIC "-//W3C//DTD SVG 1.1//EN" "http://www.w3.org/Graphics/SVG/1.1/DTD/svg11.dtd">
<svg xmlns="http://www.w3.org/2000/svg" version="1.1" viewBox="0.00 0.00 48.00 48.00">
<g stroke-width="2.00" fill="none" stroke-linecap="butt">
<path stroke="#22a062" vector-effect="non-scaling-stroke" d="
  M 41.06 8.93
  L 41.10 11.79"
/>
<path stroke="#199054" vector-effect="non-scaling-stroke" d="
  M 41.10 11.79
  L 6.74 11.92"
/>
<path stroke="#22a062" vector-effect="non-scaling-stroke" d="
  M 6.74 11.92
  Q 7.18 10.73 6.68 9.01"
/>
<path stroke="#2ab474" vector-effect="non-scaling-stroke" d="
  M 6.74 11.92
  Q 6.13 12.29 6.15 12.54"
/>
<path stroke="#4ad494" vector-effect="non-scaling-stroke" d="
  M 6.15 12.54
  Q 5.40 11.09 1.50 12.15"
/>
<path stroke="#4ad494" vector-effect="non-scaling-stroke" d="
  M 47.43 14.95
  Q 45.51 14.35 43.31 14.94
  Q 42.89 15.05 42.89 15.49
  L 42.87 38.96"
/>
<path stroke="#4ad494" vector-effect="non-scaling-stroke" d="
  M 5.12 38.96
  L 5.07 15.88
  Q 5.07 15.38 5.37 14.98
  L 5.90 14.30"
/>
<path stroke="#2ab474" vector-effect="non-scaling-stroke" d="
  M 5.90 14.30
  Q 5.77 14.87 6.75 14.89
  Q 17.10 15.10 37.22 14.96
  C 38.50 14.95 39.98 14.67 41.38 14.67
  Q 41.87 14.67 41.94 14.17
  Q 42.21 11.89 41.10 11.79"
/>
<path stroke="#4ad494" vector-effect="non-scaling-stroke" d="
  M 27.98 26.99
  A 7.97 7.97 0.0 0 0 20.01 19.02
  A 7.97 7.97 0.0 0 0 12.04 26.99
  A 7.97 7.97 0.0 0 0 20.01 34.96
  A 7.97 7.97 0.0 0 0 27.98 26.99"
/>
<path stroke="#4ad494" vector-effect="non-scaling-stroke" d="
  M 37.8984 34.2028
  A 0.94 0.94 0.0 0 0 36.9535 33.2677
  L 36.0735 33.2723
  A 0.94 0.94 0.0 0 0 35.1384 34.2172
  L 35.1416 34.8172
  A 0.94 0.94 0.0 0 0 36.0865 35.7523
  L 36.9665 35.7477
  A 0.94 0.94 0.0 0 0 37.9016 34.8028
  L 37.8984 34.2028"
/>
<path stroke="#4ad494" vector-effect="non-scaling-stroke" d="
  M 41.8916 34.2517
  A 1.04 1.04 0.0 0 0 40.8177 33.2468
  L 39.9781 33.2746
  A 1.04 1.04 0.0 0 0 38.9732 34.3485
  L 38.9884 34.8083
  A 1.04 1.04 0.0 0 0 40.0623 35.8132
  L 40.9019 35.7854
  A 1.04 1.04 0.0 0 0 41.9068 34.7115
  L 41.8916 34.2517"
/>
<path stroke="#41c387" vector-effect="non-scaling-stroke" d="
  M 5.90 14.30
  Q 5.84 13.51 6.15 12.54"
/>
</g>
<path fill="#107c42" d="
  M 41.06 8.93
  L 41.10 11.79
  L 6.74 11.92
  Q 7.18 10.73 6.68 9.01
  L 41.06 8.93
  Z"
/>
<path fill="#33c481" d="
  M 6.68 9.01
  Q 7.18 10.73 6.74 11.92
  Q 6.13 12.29 6.15 12.54
  Q 5.40 11.09 1.50 12.15
  L 2.34 9.55
  Q 2.50 9.04 3.04 9.04
  L 6.68 9.01
  Z"
/>
<path fill="#33c481" d="
  M 41.06 8.93
  L 45.21 9.15
  Q 45.82 9.19 45.98 9.77
  L 47.43 14.95
  Q 45.51 14.35 43.31 14.94
  Q 42.89 15.05 42.89 15.49
  L 42.87 38.96
  L 5.12 38.96
  L 5.07 15.88
  Q 5.07 15.38 5.37 14.98
  L 5.90 14.30
  Q 5.77 14.87 6.75 14.89
  Q 17.10 15.10 37.22 14.96
  C 38.50 14.95 39.98 14.67 41.38 14.67
  Q 41.87 14.67 41.94 14.17
  Q 42.21 11.89 41.10 11.79
  L 41.06 8.93
  Z
  M 27.98 26.99
  A 7.97 7.97 0.0 0 0 20.01 19.02
  A 7.97 7.97 0.0 0 0 12.04 26.99
  A 7.97 7.97 0.0 0 0 20.01 34.96
  A 7.97 7.97 0.0 0 0 27.98 26.99
  Z
  M 37.8984 34.2028
  A 0.94 0.94 0.0 0 0 36.9535 33.2677
  L 36.0735 33.2723
  A 0.94 0.94 0.0 0 0 35.1384 34.2172
  L 35.1416 34.8172
  A 0.94 0.94 0.0 0 0 36.0865 35.7523
  L 36.9665 35.7477
  A 0.94 0.94 0.0 0 0 37.9016 34.8028
  L 37.8984 34.2028
  Z
  M 41.8916 34.2517
  A 1.04 1.04 0.0 0 0 40.8177 33.2468
  L 39.9781 33.2746
  A 1.04 1.04 0.0 0 0 38.9732 34.3485
  L 38.9884 34.8083
  A 1.04 1.04 0.0 0 0 40.0623 35.8132
  L 40.9019 35.7854
  A 1.04 1.04 0.0 0 0 41.9068 34.7115
  L 41.8916 34.2517
  Z"
/>
<path fill="#21a366" d="
  M 41.10 11.79
  Q 42.21 11.89 41.94 14.17
  Q 41.87 14.67 41.38 14.67
  C 39.98 14.67 38.50 14.95 37.22 14.96
  Q 17.10 15.10 6.75 14.89
  Q 5.77 14.87 5.90 14.30
  Q 5.84 13.51 6.15 12.54
  Q 6.13 12.29 6.74 11.92
  L 41.10 11.79
  Z"
/>
<path fill="#61e3a7" d="
  M 6.15 12.54
  Q 5.84 13.51 5.90 14.30
  L 5.37 14.98
  Q 5.07 15.38 5.07 15.88
  L 5.12 38.96
  Q 1.64 39.41 0.00 38.33
  L 0.00 20.02
  L 1.50 12.15
  Q 5.40 11.09 6.15 12.54
  Z"
/>
<path fill="#61e3a7" d="
  M 47.43 14.95
  L 48.00 18.64
  L 48.00 38.41
  Q 46.15 39.37 42.87 38.96
  L 42.89 15.49
  Q 42.89 15.05 43.31 14.94
  Q 45.51 14.35 47.43 14.95
  Z"
/>
<circle fill="#61e3a7" cx="20.01" cy="26.99" r="7.97"/>
<rect fill="#61e3a7" x="-1.38" y="-1.24" transform="translate(36.52,34.51) rotate(-0.3)" width="2.76" height="2.48" rx="0.94"/>
<rect fill="#61e3a7" x="-1.46" y="-1.27" transform="translate(40.44,34.53) rotate(-1.9)" width="2.92" height="2.54" rx="1.04"/>
</svg>
