<?xml version="1.0" encoding="UTF-8" standalone="no"?>
<!DOCTYPE svg PUBLIC "-//W3C//DTD SVG 1.1//EN" "http://www.w3.org/Graphics/SVG/1.1/DTD/svg11.dtd">
<svg xmlns="http://www.w3.org/2000/svg" version="1.1" viewBox="0.00 0.00 48.00 48.00">
<g stroke-width="2.00" fill="none" stroke-linecap="butt">
<path stroke="#eb2a2a" vector-effect="non-scaling-stroke" d="
  M 45.97 17.92
  L 43.05 18.49"
/>
<path stroke="#e67575" vector-effect="non-scaling-stroke" d="
  M 43.05 18.49
  L 42.78 13.49
  A 0.55 0.55 0.0 0 0 42.22 12.97
  L 35.78 13.08
  A 0.67 0.66 -89.5 0 0 35.13 13.73
  L 35.01 18.76"
/>
<path stroke="#eb2a2a" vector-effect="non-scaling-stroke" d="
  M 35.01 18.76
  Q 33.59 18.73 32.78 19.90
  A 0.71 0.69 -63.4 0 1 31.99 20.17
  Q 30.57 19.70 29.96 20.70
  Q 29.70 21.12 29.22 21.12
  L 27.20 21.12
  Q 26.71 21.12 26.33 21.43
  L 25.07 22.45
  Q 24.63 22.81 25.19 22.86
  Q 25.40 22.88 25.59 22.94
  Q 25.78 23.00 25.84 23.12
  Q 25.93 23.30 25.76 23.47"
/>
<path stroke="#f24141" vector-effect="non-scaling-stroke" d="
  M 25.76 23.47
  C 24.36 23.21 21.43 22.72 20.59 24.31"
/>
<path stroke="#eb2a2a" vector-effect="non-scaling-stroke" d="
  M 20.59 24.31
  L 18.72 24.49"
/>
<path stroke="#f24141" vector-effect="non-scaling-stroke" d="
  M 18.72 24.49
  Q 19.09 24.02 18.86 23.92
  Q 16.30 22.82 13.30 23.35
  A 0.61 0.61 0.0 0 0 13.02 24.43
  Q 13.16 24.54 13.27 24.75"
/>
<path stroke="#eb2a2a" vector-effect="non-scaling-stroke" d="
  M 13.27 24.75
  Q 11.67 25.42 10.27 24.72
  A 0.13 0.13 0.0 0 1 10.24 24.51
  Q 10.38 24.38 10.57 24.37
  Q 11.06 24.36 10.80 23.93
  Q 10.63 23.66 10.28 23.62
  C 8.77 23.49 7.45 23.28 5.57 23.44
  A 0.62 0.62 0.0 0 0 5.25 24.55
  Q 6.04 25.14 7.02 24.85
  Q 7.58 24.69 7.68 25.26
  L 7.90 26.42
  Q 8.04 27.12 7.33 27.12
  L 6.24 27.12
  Q 5.73 27.12 5.32 27.41
  Q 4.14 28.26 2.83 27.77
  Q 2.38 27.60 2.36 27.13
  Q 2.33 26.35 2.06 25.77"
/>
<path stroke="#ef3b3c" vector-effect="non-scaling-stroke" d="
  M 13.27 24.75
  Q 15.99 25.29 18.72 24.49"
/>
<path stroke="#ef3b3c" vector-effect="non-scaling-stroke" d="
  M 20.59 24.31
  Q 23.67 25.50 26.76 24.37
  Q 27.37 24.14 26.84 23.76
  Q 26.48 23.50 25.76 23.47"
/>
<path stroke="#e37070" vector-effect="non-scaling-stroke" d="
  M 43.05 18.49
  Q 42.56 20.66 37.57 20.06
  Q 37.44 20.04 36.43 20.02
  Q 35.17 20.00 35.01 18.76"
/>
<path stroke="#ef3b3c" vector-effect="non-scaling-stroke" d="
  M 35.0700 24.0133
  A 3.19 0.87 -0.3 0 0 31.8754 23.1600
  A 3.19 0.87 -0.3 0 0 28.6900 24.0467
  A 3.19 0.87 -0.3 0 0 31.8846 24.9000
  A 3.19 0.87 -0.3 0 0 35.0700 24.0133"
/>
<path stroke="#ef3b3c" vector-effect="non-scaling-stroke" d="
  M 42.9500 24.0413
  A 3.24 0.84 0.2 0 0 39.7129 23.1900
  A 3.24 0.84 0.2 0 0 36.4700 24.0187
  A 3.24 0.84 0.2 0 0 39.7071 24.8700
  A 3.24 0.84 0.2 0 0 42.9500 24.0413"
/>
<path stroke="#de1212" vector-effect="non-scaling-stroke" d="
  M 14.1201 29.9579
  A 0.94 0.94 0.0 0 0 13.1817 29.0163
  L 5.9817 29.0037
  A 0.94 0.94 0.0 0 0 5.0401 29.9421
  L 5.0399 30.0221
  A 0.94 0.94 0.0 0 0 5.9783 30.9637
  L 13.1783 30.9763
  A 0.94 0.94 0.0 0 0 14.1199 30.0379
  L 14.1201 29.9579"
/>
<path stroke="#de1212" vector-effect="non-scaling-stroke" d="
  M 24.9999 29.9320
  A 0.93 0.93 0.0 0 0 24.0683 29.0037
  L 16.8083 29.0163
  A 0.93 0.93 0.0 0 0 15.8799 29.9480
  L 15.8801 30.0680
  A 0.93 0.93 0.0 0 0 16.8117 30.9963
  L 24.0717 30.9837
  A 0.93 0.93 0.0 0 0 25.0001 30.0520
  L 24.9999 29.9320"
/>
<path stroke="#de1212" vector-effect="non-scaling-stroke" d="
  M 20.0099 33.9469
  A 0.95 0.95 0.0 0 0 19.0583 32.9986
  L 5.9983 33.0214
  A 0.95 0.95 0.0 0 0 5.0500 33.9731
  L 5.0501 34.0331
  A 0.95 0.95 0.0 0 0 6.0017 34.9814
  L 19.0617 34.9586
  A 0.95 0.95 0.0 0 0 20.0100 34.0069
  L 20.0099 33.9469"
/>
</g>
<path fill="#ed2f2f" d="
  M 45.97 17.92
  L 43.05 18.49
  L 42.78 13.49
  A 0.55 0.55 0.0 0 0 42.22 12.97
  L 35.78 13.08
  A 0.67 0.66 -89.5 0 0 35.13 13.73
  L 35.01 18.76
  Q 33.59 18.73 32.78 19.90
  A 0.71 0.69 -63.4 0 1 31.99 20.17
  Q 30.57 19.70 29.96 20.70
  Q 29.70 21.12 29.22 21.12
  L 27.20 21.12
  Q 26.71 21.12 26.33 21.43
  L 25.07 22.45
  Q 24.63 22.81 25.19 22.86
  Q 25.40 22.88 25.59 22.94
  Q 25.78 23.00 25.84 23.12
  Q 25.93 23.30 25.76 23.47
  C 24.36 23.21 21.43 22.72 20.59 24.31
  L 18.72 24.49
  Q 19.09 24.02 18.86 23.92
  Q 16.30 22.82 13.30 23.35
  A 0.61 0.61 0.0 0 0 13.02 24.43
  Q 13.16 24.54 13.27 24.75
  Q 11.67 25.42 10.27 24.72
  A 0.13 0.13 0.0 0 1 10.24 24.51
  Q 10.38 24.38 10.57 24.37
  Q 11.06 24.36 10.80 23.93
  Q 10.63 23.66 10.28 23.62
  C 8.77 23.49 7.45 23.28 5.57 23.44
  A 0.62 0.62 0.0 0 0 5.25 24.55
  Q 6.04 25.14 7.02 24.85
  Q 7.58 24.69 7.68 25.26
  L 7.90 26.42
  Q 8.04 27.12 7.33 27.12
  L 6.24 27.12
  Q 5.73 27.12 5.32 27.41
  Q 4.14 28.26 2.83 27.77
  Q 2.38 27.60 2.36 27.13
  Q 2.33 26.35 2.06 25.77
  L 2.27 11.64
  Q 2.31 9.02 4.93 9.01
  L 43.05 8.99
  A 2.92 2.92 0.0 0 1 45.97 11.92
  L 45.97 17.92
  Z"
/>
<path fill="#debbbb" d="
  M 43.05 18.49
  Q 42.56 20.66 37.57 20.06
  Q 37.44 20.04 36.43 20.02
  Q 35.17 20.00 35.01 18.76
  L 35.13 13.73
  A 0.67 0.66 -89.5 0 1 35.78 13.08
  L 42.22 12.97
  A 0.55 0.55 0.0 0 1 42.78 13.49
  L 43.05 18.49
  Z"
/>
<path fill="#e82424" d="
  M 45.97 17.92
  L 45.98 36.04
  A 2.96 2.95 90.0 0 1 43.03 39.00
  L 5.47 39.00
  Q 2.00 39.00 2.01 35.53
  L 2.06 25.77
  Q 2.33 26.35 2.36 27.13
  Q 2.38 27.60 2.83 27.77
  Q 4.14 28.26 5.32 27.41
  Q 5.73 27.12 6.24 27.12
  L 7.33 27.12
  Q 8.04 27.12 7.90 26.42
  L 7.68 25.26
  Q 7.58 24.69 7.02 24.85
  Q 6.04 25.14 5.25 24.55
  A 0.62 0.62 0.0 0 1 5.57 23.44
  C 7.45 23.28 8.77 23.49 10.28 23.62
  Q 10.63 23.66 10.80 23.93
  Q 11.06 24.36 10.57 24.37
  Q 10.38 24.38 10.24 24.51
  A 0.13 0.13 0.0 0 0 10.27 24.72
  Q 11.67 25.42 13.27 24.75
  Q 15.99 25.29 18.72 24.49
  L 20.59 24.31
  Q 23.67 25.50 26.76 24.37
  Q 27.37 24.14 26.84 23.76
  Q 26.48 23.50 25.76 23.47
  Q 25.93 23.30 25.84 23.12
  Q 25.78 23.00 25.59 22.94
  Q 25.40 22.88 25.19 22.86
  Q 24.63 22.81 25.07 22.45
  L 26.33 21.43
  Q 26.71 21.12 27.20 21.12
  L 29.22 21.12
  Q 29.70 21.12 29.96 20.70
  Q 30.57 19.70 31.99 20.17
  A 0.71 0.69 -63.4 0 0 32.78 19.90
  Q 33.59 18.73 35.01 18.76
  Q 35.17 20.00 36.43 20.02
  Q 37.44 20.04 37.57 20.06
  Q 42.56 20.66 43.05 18.49
  L 45.97 17.92
  Z
  M 35.0700 24.0133
  A 3.19 0.87 -0.3 0 0 31.8754 23.1600
  A 3.19 0.87 -0.3 0 0 28.6900 24.0467
  A 3.19 0.87 -0.3 0 0 31.8846 24.9000
  A 3.19 0.87 -0.3 0 0 35.0700 24.0133
  Z
  M 42.9500 24.0413
  A 3.24 0.84 0.2 0 0 39.7129 23.1900
  A 3.24 0.84 0.2 0 0 36.4700 24.0187
  A 3.24 0.84 0.2 0 0 39.7071 24.8700
  A 3.24 0.84 0.2 0 0 42.9500 24.0413
  Z
  M 14.1201 29.9579
  A 0.94 0.94 0.0 0 0 13.1817 29.0163
  L 5.9817 29.0037
  A 0.94 0.94 0.0 0 0 5.0401 29.9421
  L 5.0399 30.0221
  A 0.94 0.94 0.0 0 0 5.9783 30.9637
  L 13.1783 30.9763
  A 0.94 0.94 0.0 0 0 14.1199 30.0379
  L 14.1201 29.9579
  Z
  M 24.9999 29.9320
  A 0.93 0.93 0.0 0 0 24.0683 29.0037
  L 16.8083 29.0163
  A 0.93 0.93 0.0 0 0 15.8799 29.9480
  L 15.8801 30.0680
  A 0.93 0.93 0.0 0 0 16.8117 30.9963
  L 24.0717 30.9837
  A 0.93 0.93 0.0 0 0 25.0001 30.0520
  L 24.9999 29.9320
  Z
  M 20.0099 33.9469
  A 0.95 0.95 0.0 0 0 19.0583 32.9986
  L 5.9983 33.0214
  A 0.95 0.95 0.0 0 0 5.0500 33.9731
  L 5.0501 34.0331
  A 0.95 0.95 0.0 0 0 6.0017 34.9814
  L 19.0617 34.9586
  A 0.95 0.95 0.0 0 0 20.0100 34.0069
  L 20.0099 33.9469
  Z"
/>
<path fill="#f65253" d="
  M 18.72 24.49
  Q 15.99 25.29 13.27 24.75
  Q 13.16 24.54 13.02 24.43
  A 0.61 0.61 0.0 0 1 13.30 23.35
  Q 16.30 22.82 18.86 23.92
  Q 19.09 24.02 18.72 24.49
  Z"
/>
<path fill="#f65253" d="
  M 25.76 23.47
  Q 26.48 23.50 26.84 23.76
  Q 27.37 24.14 26.76 24.37
  Q 23.67 25.50 20.59 24.31
  C 21.43 22.72 24.36 23.21 25.76 23.47
  Z"
/>
<ellipse fill="#f65253" cx="0.00" cy="0.00" transform="translate(31.88,24.03) rotate(-0.3)" rx="3.19" ry="0.87"/>
<ellipse fill="#f65253" cx="0.00" cy="0.00" transform="translate(39.71,24.03) rotate(0.2)" rx="3.24" ry="0.84"/>
<rect fill="#d40000" x="-4.54" y="-0.98" transform="translate(9.58,29.99) rotate(0.1)" width="9.08" height="1.96" rx="0.94"/>
<rect fill="#d40000" x="-4.56" y="-0.99" transform="translate(20.44,30.00) rotate(-0.1)" width="9.12" height="1.98" rx="0.93"/>
<rect fill="#d40000" x="-7.48" y="-0.98" transform="translate(12.53,33.99) rotate(-0.1)" width="14.96" height="1.96" rx="0.95"/>
</svg>
